PathFileType	4	(X/Y/Z)	/Users/itak/Documents/Research/Walk-IL/dataset/trc/00183_00008.trc
DataRate	CameraRate	NumFrames	NumMarkers	Units	OrigDataRate	OrigDataStartFrame	OrigNumFrames
100.000000	100.000000	4	53	mm	100.000000	532	852
Frame#	Time	RPSI			LPSI			L3			STRN			T10			C7			CLAV			RBAK			LBAK			LSHO			LUPA			LAEL			LAOL			LWTS			LWPS			LFRA			LIFD			LHPS			LHTS			RSHO			RUPA			RAEL			RAOL			RWTS			RWPS			RFRA			RIFD			RHTS			RHPS			RBHD			LFHD			RFHD			LBHD			LHIP			RHIP			RASI			LASI			LKNE			LTHI			LANK			LTIP			LTOE			LMT1			LMT5			LHEE			RKNE			RTHI			RANK			RTIP			RTOE			RMT1			RMT5			RHEE			
		X1	Y1	Z1	X2	Y2	Z2	X3	Y3	Z3	X4	Y4	Z4	X5	Y5	Z5	X6	Y6	Z6	X7	Y7	Z7	X8	Y8	Z8	X9	Y9	Z9	X10	Y10	Z10	X11	Y11	Z11	X12	Y12	Z12	X13	Y13	Z13	X14	Y14	Z14	X15	Y15	Z15	X16	Y16	Z16	X17	Y17	Z17	X18	Y18	Z18	X19	Y19	Z19	X20	Y20	Z20	X21	Y21	Z21	X22	Y22	Z22	X23	Y23	Z23	X24	Y24	Z24	X25	Y25	Z25	X26	Y26	Z26	X27	Y27	Z27	X28	Y28	Z28	X29	Y29	Z29	X30	Y30	Z30	X31	Y31	Z31	X32	Y32	Z32	X33	Y33	Z33	X34	Y34	Z34	X35	Y35	Z35	X36	Y36	Z36	X37	Y37	Z37	X38	Y38	Z38	X39	Y39	Z39	X40	Y40	Z40	X41	Y41	Z41	X42	Y42	Z42	X43	Y43	Z43	X44	Y44	Z44	X45	Y45	Z45	X46	Y46	Z46	X47	Y47	Z47	X48	Y48	Z48	X49	Y49	Z49	X50	Y50	Z50	X51	Y51	Z51	X52	Y52	Z52	X53	Y53	Z53	

533	5.32	-805.1809692382812	1058.680786132812	-187.6783905029297	-687.9847412109375	1051.492065429688	-156.2823333740234	-749.30859375	1092.01318359375	-171.4008636474609	-796.656982421875	1303.304931640625	93.65234375	-723.2605590820312	1247.5615234375	-199.3222961425781	-699.69189453125	1513.75439453125	-125.4360275268555	-768.9141845703125	1416.203002929688	70.55909729003906	-806.51953125	1351.393920898438	-221.5377349853516	-605.8456420898438	1480.034545898438	-106.5306091308594	-553.0120239257812	1461.411376953125	-12.30146884918213	-480.4327697753906	1327.843872070312	-31.8673152923584	-466.1925964355469	1112.676635742188	-23.00273323059082	-531.3722534179688	1096.838134765625	-81.63497924804688	-514.6739501953125	889.7005615234375	97.08522796630859	-468.9187622070312	860.6918334960938	21.03285026550293	-457.1384887695312	1002.01171875	-2.394291877746582	-544.0006103515625	706.6085815429688	123.001594543457	-477.6292419433594	793.1742553710938	46.8754997253418	-498.0821228027344	810.5201416015625	114.7452011108398	-889.3060302734375	1518.000244140625	-113.0959548950195	-956.2651977539062	1463.71533203125	-155.3932342529297	-1063.887939453125	1201.2080078125	-213.0079803466797	-976.071533203125	1169.599365234375	-185.388671875	-1158.459716796875	987.8057250976562	-84.23637390136719	-1173.046630859375	975.3558959960938	-171.8106689453125	-1107.713134765625	1137.036865234375	-199.0611724853516	-1188.268310546875	801.00830078125	-63.5145149230957	-1199.352294921875	900.6588745117188	-65.68817138671875	-1201.97119140625	896.8247680664062	-146.5107574462891	-771.1802368164062	1687.781494140625	-80.17884826660156	-652.4514770507812	1712.495727539062	101.1807250976562	-777.9147338867188	1735.615600585938	89.48054504394531	-635.318359375	1671.365844726562	-73.58106994628906	-597.3093872070312	988.6671142578125	-27.08999633789062	-969.7393798828125	1021.889709472656	-71.52025604248047	-936.1325073242188	1046.367553710938	19.17676162719727	-686.2177124023438	1026.539916992188	78.70833587646484	-680.0402221679688	513.587890625	181.2460174560547	-642.8836669921875	651.9481811523438	126.8114624023438	-737.9139404296875	91.47763824462891	-41.11745452880859	-699.0029907226562	297.2515563964844	76.47160339355469	-753.6283569335938	59.47483825683594	171.1932220458984	-801.7509155273438	59.50433731079102	124.0031356811523	-694.795166015625	68.52071380615234	62.59673690795898	-807.3458862304688	102.1271362304688	-88.54097747802734	-962.1519775390625	514.843994140625	-86.9461669921875	-995.249755859375	785.003173828125	-37.06369018554688	-936.7852783203125	39.27557373046875	-233.35791015625	-950.6314697265625	390.1514892578125	-84.09534454345703	-988.142333984375	41.41389846801758	-14.00254440307617	-925.9073486328125	44.87680435180664	-46.74823379516602	-1011.62060546875	31.14115905761719	-145.9447021484375	-855.5016479492188	42.54977798461914	-256.0577392578125	
534	5.33	-808.9058227539062	1058.231689453125	-181.0417938232422	-691.5389404296875	1050.954711914062	-151.2116546630859	-752.9345703125	1091.789794921875	-165.4583740234375	-796.554443359375	1302.332641601562	101.0950393676758	-727.9176025390625	1247.567260742188	-193.2252807617188	-703.3178100585938	1513.325073242188	-118.5733795166016	-769.1871948242188	1415.302734375	77.97736358642578	-811.7199096679688	1351.44970703125	-213.5865936279297	-609.0048828125	1479.662353515625	-101.6059951782227	-554.6800537109375	1460.630004882812	-8.329107284545898	-482.937744140625	1326.85302734375	-29.66538047790527	-469.6251220703125	1111.4990234375	-21.35705184936523	-535.8742065429688	1096.068725585938	-78.69414520263672	-518.1146850585938	889.887451171875	101.1999053955078	-473.3865051269531	859.8030395507812	24.82209014892578	-461.0976867675781	1000.770812988281	-0.1971763223409653	-548.4942626953125	707.3267822265625	129.3983612060547	-482.565673828125	792.5611572265625	51.41955184936523	-501.8184814453125	810.7420043945312	119.4314346313477	-892.6502685546875	1517.656860351562	-103.0622787475586	-960.462646484375	1463.585205078125	-144.2386169433594	-1070.147216796875	1201.610107421875	-200.0950927734375	-982.2400512695312	1169.400390625	-174.0807800292969	-1163.721069335938	988.4575805664062	-70.30515289306641	-1179.747436523438	976.3377075195312	-157.7091979980469	-1114.042236328125	1137.72412109375	-185.5393218994141	-1194.380249023438	801.8017578125	-49.75527572631836	-1204.84619140625	901.517822265625	-51.38533401489258	-1208.786743164062	897.9554443359375	-132.1746520996094	-774.36865234375	1687.091430664062	-71.79563903808594	-652.2190551757812	1711.70703125	107.2957534790039	-778.0015258789062	1734.5576171875	98.07316589355469	-638.3848266601562	1670.943237304688	-67.838623046875	-598.8082885742188	988.594970703125	-23.38796997070312	-971.677978515625	1020.89404296875	-63.19231414794922	-937.1719360351562	1045.435546875	27.54574394226074	-686.4374389648438	1026.031127929688	83.66652679443359	-679.3438110351562	515.1824951171875	189.4809265136719	-641.7635498046875	652.7218017578125	132.8985443115234	-743.9976196289062	83.42404937744141	-11.55262565612793	-701.2147827148438	294.7189331054688	94.76022338867188	-754.2803344726562	61.32889175415039	202.4237213134766	-803.7410278320312	59.34331512451172	156.4969024658203	-698.319091796875	64.93919372558594	91.97627258300781	-814.7197265625	92.21453094482422	-57.6122932434082	-962.602294921875	514.5177612304688	-84.05500030517578	-995.90283203125	783.637939453125	-30.35942649841309	-936.9886474609375	39.88356781005859	-233.3089141845703	-950.829833984375	389.9704284667969	-82.12245941162109	-988.2120971679688	41.43215942382812	-14.06245517730713	-925.9514770507812	44.84212493896484	-46.78117752075195	-1011.688781738281	31.13526725769043	-145.7658233642578	-855.8211059570312	43.12994003295898	-256.1965942382812	
535	5.34	-812.4223022460938	1057.677124023438	-174.3749847412109	-694.820068359375	1050.327392578125	-146.1023712158203	-756.31884765625	1091.450317382812	-159.4411468505859	-796.2801513671875	1301.20849609375	108.5198440551758	-732.30517578125	1247.452392578125	-187.0072021484375	-706.7125854492188	1512.793823242188	-111.615348815918	-769.3064575195312	1414.232543945312	85.40593719482422	-816.60791015625	1351.391845703125	-205.5567474365234	-611.9459838867188	1479.166870117188	-96.50505828857422	-556.2072143554688	1459.721923828125	-4.183178901672363	-485.3724975585938	1325.709106445312	-27.26835823059082	-473.0794677734375	1110.168090820312	-19.57314682006836	-540.4066772460938	1095.23291015625	-75.53985595703125	-521.5270385742188	889.847412109375	105.2868499755859	-477.813232421875	858.7711791992188	28.60608100891113	-465.060302734375	999.3784790039062	2.079805612564087	-552.9335327148438	707.8153076171875	135.6072235107422	-487.4135437011719	791.7896728515625	55.91659927368164	-505.5336608886719	810.733154296875	124.031364440918	-895.7197265625	1517.181274414062	-93.02008819580078	-964.3394165039062	1463.301879882812	-133.1004638671875	-1075.960693359375	1201.827026367188	-187.1902465820312	-988.0009765625	1169.062377929688	-162.7164459228516	-1168.52734375	988.9312133789062	-56.3667106628418	-1185.953369140625	977.1246948242188	-143.5936126708984	-1119.915283203125	1138.21826171875	-172.0358276367188	-1200.0146484375	802.4259033203125	-35.93790054321289	-1209.882690429688	902.2054443359375	-37.07225799560547	-1215.110107421875	898.8978271484375	-117.8111114501953	-777.3114624023438	1686.25927734375	-63.37439346313477	-651.8939819335938	1710.831787109375	113.426628112793	-777.9291381835938	1733.429443359375	106.6238327026367	-641.2831420898438	1670.365966796875	-61.99279403686523	-600.2608642578125	988.3013305664062	-19.57211494445801	-973.3594360351562	1019.657897949219	-55.04531097412109	-938.0848388671875	1044.480590820312	35.91218948364258	-686.5825805664062	1025.381591796875	88.70090484619141	-678.64306640625	516.4960327148438	197.3749694824219	-640.5859375	653.1987915039062	138.7974700927734	-748.7440795898438	76.04104614257812	18.42392158508301	-702.7833251953125	292.3328857421875	113.0936889648438	-753.84375	63.74125289916992	233.3909759521484	-804.47802734375	59.82358551025391	188.8259735107422	-700.654052734375	61.98004531860352	121.5243759155273	-820.6698608398438	82.99345397949219	-26.28361511230469	-963.0237426757812	514.1649169921875	-81.01023864746094	-996.5245971679688	782.3231811523438	-23.53826522827148	-937.1427612304688	40.50345611572266	-233.2419891357422	-951.0086059570312	389.7574768066406	-80.03271484375	-988.2418823242188	41.42152786254883	-14.07430839538574	-925.9067993164062	44.74193572998047	-46.75966262817383	-1011.705810546875	31.15596961975098	-145.6138000488281	-856.0748901367188	43.74235153198242	-256.3041381835938	
536	5.350000000000001	-815.7357788085938	1057.027221679688	-167.6739349365234	-697.8401489257812	1049.606079101562	-140.9315338134766	-759.4635009765625	1090.994262695312	-153.3478393554688	-795.8480834960938	1299.928100585938	115.9576721191406	-736.417236328125	1247.220336914062	-180.6719818115234	-709.8648681640625	1512.163330078125	-104.5654983520508	-769.2817993164062	1413.0009765625	92.86384582519531	-821.186767578125	1351.229858398438	-197.4523773193359	-614.6746215820312	1478.552734375	-91.21860504150391	-557.5826416015625	1458.686889648438	0.1439869254827499	-487.7278137207031	1324.411987304688	-24.66493225097656	-476.5258483886719	1108.688110351562	-17.6376953125	-544.96044921875	1094.325561523438	-72.15216064453125	-524.8802490234375	889.572998046875	109.3561859130859	-482.2011108398438	857.5891723632812	32.37189102172852	-469.00048828125	997.8375244140625	4.443361759185791	-557.2826538085938	708.0574340820312	141.6290893554688	-492.1438598632812	790.850830078125	60.35620498657227	-509.1957092285156	810.4857177734375	128.5432891845703	-898.5159301757812	1516.57373046875	-82.96878051757812	-967.8983764648438	1462.8671875	-121.980224609375	-1081.328247070312	1201.859985351562	-174.317138671875	-993.3361206054688	1168.590209960938	-151.3246765136719	-1172.864868164062	989.2301635742188	-42.42914199829102	-1191.656127929688	977.7086181640625	-129.4727172851562	-1125.325317382812	1138.511840820312	-158.5705108642578	-1205.14599609375	802.883544921875	-22.04065895080566	-1214.446899414062	902.7254028320312	-22.74725532531738	-1220.924072265625	899.6439208984375	-103.4208984375	-780.0111694335938	1685.286865234375	-54.91045761108398	-651.4804077148438	1709.87255859375	119.5852355957031	-777.7010498046875	1732.23095703125	115.1296691894531	-644.0081787109375	1669.637329101562	-56.0421028137207	-601.6812133789062	987.7818603515625	-15.60850238800049	-974.8184814453125	1018.220581054688	-47.02687454223633	-938.8843383789062	1043.518676757812	44.27360153198242	-686.6673583984375	1024.593872070312	93.8316650390625	-677.9194946289062	517.5250854492188	204.9561614990234	-639.3682861328125	653.3867797851562	144.5434265136719	-752.22802734375	69.36794281005859	48.6622428894043	-703.7210083007812	290.1292419433594	131.3869781494141	-752.3403930664062	66.78395080566406	263.9861755371094	-804.0081176757812	60.99827575683594	220.87548828125	-701.8276977539062	59.71792221069336	151.1050720214844	-825.2451171875	74.5235595703125	5.315573215484619	-963.4041748046875	513.7870483398438	-77.80535888671875	-997.099365234375	781.0569458007812	-16.65878677368164	-937.2220458984375	41.13423156738281	-233.1419525146484	-951.1451416015625	389.5098571777344	-77.80862426757812	-988.23779296875	41.38198471069336	-14.03760814666748	-925.7839965820312	44.58444595336914	-46.68231201171875	-1011.660034179688	31.20720863342285	-145.4973449707031	-856.2407836914062	44.39559936523438	-256.3600769042969	
